<svg width="266" height="57" viewBox="0 0 266 57" fill="none" xmlns="http://www.w3.org/2000/svg">
<rect width="266" height="57" rx="4" fill="#F7C8CC"/>
<path d="M0 41H266V53C266 55.2091 264.209 57 262 57H4C1.79086 57 0 55.2091 0 53V41Z" fill="#F09199"/>
<circle cx="33" cy="28" r="26" fill="#F7C8CC"/>
<circle cx="32.5" cy="27.5" r="20.5" fill="white" stroke="#F09199" stroke-width="4"/>
<path d="M22.3711 21.0449H25.0781V31.6709H31.4941V34H22.3711V21.0449ZM42.5156 33.0332C41.5488 33.918 40.3125 34.3604 38.8066 34.3604C36.9434 34.3604 35.4785 33.7627 34.4121 32.5674C33.3457 31.3662 32.8125 29.7197 32.8125 27.6279C32.8125 25.3662 33.4189 23.623 34.6318 22.3984C35.6865 21.332 37.0283 20.7988 38.6572 20.7988C40.8369 20.7988 42.4307 21.5137 43.4385 22.9434C43.9951 23.7461 44.2939 24.5518 44.335 25.3604H41.6279C41.4521 24.7393 41.2266 24.2705 40.9512 23.9541C40.459 23.3916 39.7295 23.1104 38.7627 23.1104C37.7783 23.1104 37.002 23.5088 36.4336 24.3057C35.8652 25.0967 35.5811 26.2188 35.5811 27.6719C35.5811 29.125 35.8799 30.2148 36.4775 30.9414C37.0811 31.6621 37.8457 32.0225 38.7715 32.0225C39.7207 32.0225 40.4443 31.7119 40.9424 31.0908C41.2178 30.7568 41.4463 30.2559 41.6279 29.5879H44.3086C44.0742 31 43.4766 32.1484 42.5156 33.0332Z" fill="#F09199"/>
<path d="M210.08 49.5977H205.186V52.1885H210.764V54H203.128V43.9238H210.518V45.708H205.186V47.8477H210.08V49.5977ZM216.062 52.5439C216.558 52.5439 216.962 52.4893 217.271 52.3799C217.859 52.1702 218.153 51.7806 218.153 51.2109C218.153 50.8783 218.007 50.6208 217.716 50.4385C217.424 50.2607 216.966 50.1035 216.342 49.9668L215.275 49.7275C214.227 49.4906 213.503 49.2331 213.102 48.9551C212.423 48.4902 212.083 47.7633 212.083 46.7744C212.083 45.8721 212.411 45.1224 213.067 44.5254C213.724 43.9284 214.688 43.6299 215.959 43.6299C217.021 43.6299 217.925 43.9124 218.673 44.4775C219.425 45.0381 219.819 45.8538 219.855 46.9248H217.832C217.796 46.3187 217.531 45.888 217.039 45.6328C216.711 45.4642 216.303 45.3799 215.815 45.3799C215.273 45.3799 214.84 45.4893 214.517 45.708C214.193 45.9268 214.031 46.2321 214.031 46.624C214.031 46.984 214.191 47.2529 214.51 47.4307C214.715 47.5492 215.152 47.6882 215.822 47.8477L217.559 48.2646C218.32 48.4469 218.894 48.6908 219.281 48.9961C219.883 49.4701 220.184 50.1559 220.184 51.0537C220.184 51.9743 219.83 52.7399 219.124 53.3506C218.422 53.9567 217.429 54.2598 216.144 54.2598C214.831 54.2598 213.799 53.9613 213.047 53.3643C212.295 52.7627 211.919 51.9378 211.919 50.8896H213.929C213.993 51.3499 214.118 51.694 214.305 51.9219C214.646 52.3366 215.232 52.5439 216.062 52.5439Z" fill="white"/>
<circle cx="211" cy="21" r="18" fill="white"/>
<path d="M206.597 26.0329C208.364 26.0329 210.007 25.5029 211.373 24.5942C209.069 23.0616 207.552 20.4517 207.552 17.4896C207.552 14.5276 209.069 11.9176 211.373 10.385C210.007 9.47629 208.364 8.94635 206.597 8.94635C201.849 8.94635 198 12.7713 198 17.4896C198 22.2079 201.849 26.0329 206.597 26.0329Z" fill="#F7C8CC"/>
<path d="M207.552 17.4896C207.552 20.4517 209.069 23.0616 211.373 24.5942C213.677 23.0616 215.194 20.4517 215.194 17.4896C215.194 14.5276 213.677 11.9176 211.373 10.385C209.069 11.9176 207.552 14.5276 207.552 17.4896Z" fill="#F7C8CC"/>
<path d="M206.597 26.0329C201.849 26.0329 198 22.2079 198 17.4896C198 12.7713 201.849 8.94635 206.597 8.94635C208.364 8.94635 210.007 9.47629 211.373 10.385M206.597 26.0329V31.9657M206.597 26.0329C208.364 26.0329 210.007 25.5029 211.373 24.5942M206.597 36V31.9657M206.597 31.9657H210.896M206.597 31.9657H201.821M211.373 24.5942C209.069 23.0616 207.552 20.4517 207.552 17.4896C207.552 14.5276 209.069 11.9176 211.373 10.385M211.373 24.5942C212.739 25.5029 214.382 26.0329 216.149 26.0329C220.897 26.0329 224.746 22.2079 224.746 17.4896C224.746 15.4551 224.031 13.5867 222.836 12.1194C221.26 10.1839 218.85 8.94635 216.149 8.94635C214.382 8.94635 212.739 9.47629 211.373 10.385M211.373 24.5942C213.677 23.0616 215.194 20.4517 215.194 17.4896C215.194 14.5276 213.677 11.9176 211.373 10.385" stroke="black" stroke-width="2" stroke-linecap="round"/>
<path d="M140.746 50.0488H138.572V54H136.514V43.9238H141.457C142.163 43.9375 142.705 44.0241 143.084 44.1836C143.466 44.3431 143.79 44.5778 144.054 44.8877C144.273 45.1429 144.446 45.4255 144.574 45.7354C144.701 46.0452 144.765 46.3984 144.765 46.7949C144.765 47.2734 144.644 47.7451 144.403 48.21C144.161 48.6702 143.763 48.9961 143.207 49.1875C143.671 49.3743 144 49.641 144.191 49.9873C144.387 50.3291 144.485 50.8532 144.485 51.5596V52.2363C144.485 52.6966 144.503 53.0088 144.54 53.1729C144.594 53.4326 144.722 53.624 144.922 53.7471V54H142.605C142.541 53.7767 142.496 53.5967 142.468 53.46C142.414 53.1774 142.384 52.888 142.379 52.5918L142.366 51.6553C142.357 51.0127 142.238 50.5843 142.01 50.3701C141.787 50.1559 141.365 50.0488 140.746 50.0488ZM142.024 48.2168C142.443 48.0254 142.653 47.6471 142.653 47.082C142.653 46.4714 142.45 46.0612 142.045 45.8516C141.817 45.7331 141.475 45.6738 141.019 45.6738H138.572V48.3809H140.958C141.432 48.3809 141.787 48.3262 142.024 48.2168ZM146.584 43.9238H148.689V52.1885H153.679V54H146.584V43.9238Z" fill="white"/>
<circle cx="143.4" cy="21" r="18" fill="white"/>
<path d="M152.084 11.7847C152.084 14.9794 149.349 17.5693 145.975 17.5693C142.602 17.5693 139.867 14.9794 139.867 11.7847C139.867 8.58988 142.602 6 145.975 6C149.349 6 152.084 8.58988 152.084 11.7847Z" fill="white"/>
<path d="M145.975 17.5693L153.4 31.1333H139.867L145.975 17.5693Z" fill="white"/>
<path d="M145.975 17.5693C149.349 17.5693 152.084 14.9794 152.084 11.7847C152.084 8.58988 149.349 6 145.975 6C142.602 6 139.867 8.58988 139.867 11.7847C139.867 14.9794 142.602 17.5693 145.975 17.5693ZM145.975 17.5693L153.4 31.1333H139.867L145.975 17.5693Z" stroke="black" stroke-width="2" stroke-linejoin="round"/>
<path d="M148.204 15.6444C148.204 18.8354 145.65 21.4222 142.5 21.4222C139.35 21.4222 136.796 18.8354 136.796 15.6444C136.796 12.4535 139.35 9.86667 142.5 9.86667C145.65 9.86667 148.204 12.4535 148.204 15.6444Z" fill="#F7C8CC"/>
<path d="M142.5 21.4222L148.567 35H136L142.5 21.4222Z" fill="white"/>
<path d="M142.5 21.4222C145.65 21.4222 148.204 18.8354 148.204 15.6444C148.204 12.4535 145.65 9.86667 142.5 9.86667C139.35 9.86667 136.796 12.4535 136.796 15.6444C136.796 18.8354 139.35 21.4222 142.5 21.4222ZM142.5 21.4222L148.567 35H136L142.5 21.4222Z" stroke="black" stroke-width="2" stroke-linejoin="round"/>
<path d="M78.2012 43.9238L74.8311 50.2129V54H72.7256V50.2129L69.2393 43.9238H71.7207L73.8125 48.3125L75.8154 43.9238H78.2012ZM83 50.9717V43.9238H85.1055V50.9375C85.1055 51.7943 84.9574 52.4733 84.6611 52.9746C84.1598 53.8223 83.2552 54.2461 81.9473 54.2461C80.6393 54.2461 79.762 53.9043 79.3154 53.2207C78.8688 52.5326 78.6455 51.596 78.6455 50.4111V50.1787H80.6348V50.4111C80.653 51.1904 80.7373 51.7396 80.8877 52.0586C81.0426 52.373 81.3708 52.5303 81.8721 52.5303C82.3688 52.5303 82.6969 52.3571 82.8564 52.0107C82.9521 51.8057 83 51.4593 83 50.9717Z" fill="white"/>
<circle cx="78" cy="21" r="18" fill="white"/>
<path d="M86.8103 21.55C88.2069 7.24603 69.1207 8.19961 69.1207 20.1196L64 24.4108C68.6552 28.2252 81.2241 31.1782 91 26.8717C91 26.8717 88.6724 23.8417 86.8103 21.55Z" fill="#FDE444" stroke="black" stroke-width="2" stroke-linejoin="round"/>
</svg>
